<?xml version="1.0" encoding="utf-8"?>
<!-- Generator: Adobe Illustrator 22.1.0, SVG Export Plug-In . SVG Version: 6.00 Build 0)  -->
<svg version="1.1" id="Layer_1" focusable="false" xmlns="http://www.w3.org/2000/svg" xmlns:xlink="http://www.w3.org/1999/xlink"
	 x="0px" y="0px" viewBox="0 0 320 512" style="enable-background:new 0 0 320 512;" xml:space="preserve">
<style type="text/css">
	.st0{fill:#FD7E14;}
</style>
<path class="st0" d="M96,32H32C14.3,32,0,46.3,0,64v64c0,17.7,14.3,32,32,32h64c17.7,0,32-14.3,32-32V64C128,46.3,113.7,32,96,32z
	 M96,192H32c-17.7,0-32,14.3-32,32v64c0,17.7,14.3,32,32,32h64c17.7,0,32-14.3,32-32v-64C128,206.3,113.7,192,96,192z M96,352H32
	c-17.7,0-32,14.3-32,32v64c0,17.7,14.3,32,32,32h64c17.7,0,32-14.3,32-32v-64C128,366.3,113.7,352,96,352z M288,32h-64
	c-17.7,0-32,14.3-32,32v64c0,17.7,14.3,32,32,32h64c17.7,0,32-14.3,32-32V64C320,46.3,305.7,32,288,32z M288,192h-64
	c-17.7,0-32,14.3-32,32v64c0,17.7,14.3,32,32,32h64c17.7,0,32-14.3,32-32v-64C320,206.3,305.7,192,288,192z M288,352h-64
	c-17.7,0-32,14.3-32,32v64c0,17.7,14.3,32,32,32h64c17.7,0,32-14.3,32-32v-64C320,366.3,305.7,352,288,352z"/>
</svg>
